<?xml version="1.0" standalone="no"?>
<!DOCTYPE svg PUBLIC "-//W3C//DTD SVG 20010904//EN"
 "http://www.w3.org/TR/2001/REC-SVG-20010904/DTD/svg10.dtd">
<svg version="1.0" xmlns="http://www.w3.org/2000/svg"
 width="233.000000pt" height="93.000000pt" viewBox="0 0 233.000000 93.000000"
 preserveAspectRatio="xMidYMid meet">

<g transform="translate(0.000000,93.000000) scale(0.100000,-0.100000)"
fill="#000000" stroke="none">
<path d="M410 734 c-19 -8 -42 -27 -52 -43 -12 -22 -21 -28 -37 -24 -13 3 -21
1 -21 -6 0 -7 5 -9 11 -5 6 3 15 1 19 -5 4 -8 22 -11 46 -8 33 3 36 5 17 12
-31 10 -29 20 10 38 40 19 78 57 56 56 -8 0 -30 -7 -49 -15z"/>
<path d="M150 688 c0 -8 20 -14 73 -24 20 -3 37 -10 37 -15 0 -5 7 -9 15 -9
14 0 14 3 0 30 -15 29 -19 30 -70 28 -30 -2 -55 -6 -55 -10z"/>
<path d="M302 629 c2 -7 10 -15 17 -17 8 -3 12 1 9 9 -2 7 -10 15 -17 17 -8 3
-12 -1 -9 -9z"/>
<path d="M1378 606 c-22 -11 -23 -17 -25 -151 -2 -77 1 -146 5 -152 13 -21 65
-26 87 -9 18 13 20 28 23 138 2 68 -1 135 -7 149 -11 31 -49 42 -83 25z m50
-28 c8 -8 12 -51 12 -129 0 -94 -3 -119 -16 -130 -11 -9 -20 -10 -32 -2 -25
15 -30 233 -7 257 20 19 27 20 43 4z"/>
<path d="M1882 609 c-56 -21 -51 -111 10 -163 47 -40 63 -101 33 -126 -22 -19
-49 -2 -53 34 -4 30 -32 36 -32 6 0 -81 96 -109 120 -34 17 50 3 94 -41 135
-44 40 -58 84 -36 113 19 26 46 14 53 -24 7 -32 35 -43 33 -12 -4 61 -38 89
-87 71z"/>
<path d="M685 578 c-3 -18 -12 -78 -20 -133 -9 -55 -18 -112 -21 -128 -4 -20
-2 -27 10 -27 10 0 16 9 16 23 0 35 15 49 46 45 25 -2 29 -8 32 -35 2 -22 9
-33 19 -33 12 0 14 7 10 28 -3 15 -13 87 -23 160 -16 126 -18 132 -40 132 -18
0 -24 -7 -29 -32z m50 -120 l7 -78 -32 0 c-30 0 -32 2 -27 29 3 15 9 52 12 82
13 110 27 98 40 -33z"/>
<path d="M820 450 c0 -124 3 -160 13 -160 10 0 12 27 9 125 -3 71 0 125 5 125
5 0 17 -47 27 -105 28 -155 40 -144 72 63 13 85 25 41 22 -83 -2 -95 0 -125
10 -125 9 0 12 39 12 160 0 149 -1 160 -18 160 -20 0 -34 -46 -48 -153 -10
-74 -24 -71 -38 8 -22 129 -28 145 -47 145 -18 0 -19 -9 -19 -160z"/>
<path d="M1066 548 c-4 -35 -11 -85 -16 -113 -21 -117 -22 -145 -6 -145 9 0
16 12 18 33 3 28 7 32 35 35 29 3 32 0 39 -32 4 -22 12 -36 21 -36 11 0 13 7
9 28 -3 15 -12 72 -21 127 -26 173 -23 165 -49 165 -21 0 -24 -6 -30 -62z m52
-73 c6 -43 8 -83 6 -87 -3 -4 -16 -8 -30 -8 -25 0 -25 1 -19 58 17 157 26 165
43 37z"/>
<path d="M1200 595 c0 -11 11 -15 41 -15 32 0 40 -3 36 -14 -20 -53 -77 -243
-77 -258 0 -15 8 -18 55 -18 30 0 55 5 55 10 0 6 -18 10 -40 10 -22 0 -40 4
-40 9 0 5 18 65 40 132 22 68 40 131 40 141 0 15 -9 18 -55 18 -42 0 -55 -3
-55 -15z"/>
<path d="M1510 450 c0 -142 2 -160 16 -160 15 0 16 13 12 115 -3 63 -2 115 2
115 5 0 21 -52 36 -115 23 -94 31 -115 46 -115 17 0 18 13 18 160 0 121 -3
160 -12 160 -10 0 -12 -27 -10 -110 2 -63 -1 -110 -6 -110 -5 0 -17 33 -26 73
-35 144 -36 147 -56 147 -19 0 -20 -8 -20 -160z"/>
<path d="M1707 483 c-10 -71 -21 -143 -24 -160 -4 -26 -2 -33 10 -33 10 0 17
11 19 33 3 27 7 33 32 35 31 4 46 -10 46 -45 0 -14 6 -23 15 -23 11 0 14 7 11
22 -3 13 -12 73 -21 133 -24 166 -24 165 -49 165 -20 0 -23 -8 -39 -127z m57
15 c4 -35 10 -75 13 -90 5 -26 3 -28 -27 -28 l-32 0 6 68 c14 139 28 157 40
50z"/>
<path d="M281 572 c-12 -22 11 -62 34 -62 8 0 21 10 29 22 20 28 4 58 -29 58
-13 0 -29 -8 -34 -18z m55 -7 c8 -20 -13 -45 -32 -38 -14 5 -19 34 -7 46 11
12 33 7 39 -8z"/>
<path d="M255 510 c-4 -6 7 -23 23 -38 16 -15 31 -34 35 -42 5 -13 8 -12 21 4
20 24 20 27 2 52 -12 16 -18 17 -35 7 -15 -10 -22 -9 -31 1 -8 11 -8 15 2 19
9 4 9 6 1 6 -6 1 -15 -4 -18 -9z"/>
<path d="M363 509 c14 -8 16 -14 6 -25 -10 -12 -9 -13 5 -8 20 8 21 30 0 38
-24 9 -31 6 -11 -5z"/>
<path d="M133 451 c-7 -22 -11 -46 -9 -53 3 -7 7 -25 10 -39 3 -15 13 -29 21
-33 9 -3 14 -2 10 3 -3 5 1 11 7 14 9 3 5 11 -11 22 l-24 18 24 13 c13 7 19
13 12 14 -6 0 -15 18 -20 40 l-8 41 -12 -40z"/>
<path d="M482 473 c-1 -10 -3 -32 -5 -50 -2 -18 0 -30 5 -27 4 3 8 0 8 -5 0
-6 -4 -11 -10 -11 -15 0 -12 -26 4 -40 12 -9 16 -5 21 27 3 21 8 46 10 55 2
10 -1 21 -6 24 -5 3 -9 14 -9 25 0 24 -15 25 -18 2z"/>
<path d="M212 453 c-11 -23 -7 -86 8 -113 11 -21 12 -21 44 12 l33 33 -35 43
c-19 23 -36 42 -38 42 -2 0 -7 -8 -12 -17z"/>
<path d="M363 403 c-15 -21 -38 -46 -51 -56 -12 -10 -26 -26 -31 -35 -8 -15
-3 -17 37 -16 37 1 53 7 75 28 31 31 35 56 10 56 -13 0 -15 -2 -5 -8 10 -7 8
-14 -7 -34 -15 -19 -30 -25 -63 -26 l-43 -2 40 38 c22 21 43 36 48 34 4 -2 7
6 7 17 0 19 10 26 33 22 4 0 7 4 7 9 0 22 -31 8 -57 -27z"/>
<path d="M138 282 c-16 -9 -28 -21 -28 -26 0 -4 10 -2 21 6 19 12 24 11 51
-14 17 -16 36 -28 42 -27 23 3 36 -1 36 -11 0 -18 -56 -11 -75 10 -21 23 -35
26 -35 7 0 -26 45 -57 82 -57 45 0 75 25 57 47 -14 17 -68 47 -86 47 -7 1 -18
9 -25 18 -12 16 -15 16 -40 0z"/>
<path d="M450 279 c-6 -11 -16 -19 -23 -17 -15 3 -70 -26 -86 -45 -18 -22 12
-47 58 -47 38 0 81 31 81 58 0 18 -15 14 -35 -8 -19 -21 -75 -28 -75 -10 0 6
3 10 8 11 4 0 18 2 31 3 13 2 35 15 48 31 23 26 25 27 43 10 22 -20 28 -11 8
9 -25 24 -47 26 -58 5z"/>
<path d="M307 243 c-13 -12 -7 -33 8 -33 8 0 15 9 15 20 0 20 -11 26 -23 13z"/>
<path d="M871 220 c-7 -4 -11 -16 -9 -26 4 -24 48 -32 48 -10 0 9 -4 16 -10
16 -5 0 -10 -5 -10 -11 0 -5 -4 -7 -10 -4 -17 11 -11 23 13 27 17 2 19 5 6 10
-9 3 -21 3 -28 -2z"/>
<path d="M930 215 c-17 -20 -5 -45 20 -45 11 0 23 7 26 15 6 15 -11 45 -26 45
-4 0 -13 -7 -20 -15z m30 -20 c0 -8 -4 -15 -9 -15 -13 0 -22 16 -14 24 11 11
23 6 23 -9z"/>
<path d="M1216 215 c-11 -11 -16 -12 -19 -2 -4 9 -8 8 -16 -3 -7 -10 -11 -11
-11 -2 0 6 -4 12 -10 12 -5 0 -10 -12 -9 -27 0 -16 3 -22 6 -15 4 10 8 10 20
1 12 -10 16 -10 24 2 7 11 9 11 9 1 0 -23 45 -9 48 14 4 27 -22 38 -42 19z
m32 -17 c-6 -18 -28 -21 -28 -4 0 9 7 16 16 16 9 0 14 -5 12 -12z"/>
<path d="M1357 213 c-11 -11 -17 -13 -17 -5 0 7 -11 12 -25 12 -20 0 -25 -5
-25 -25 0 -27 26 -35 47 -14 8 8 13 8 17 0 10 -16 46 -13 52 4 6 15 -11 45
-25 45 -4 0 -14 -8 -24 -17z m-29 -14 c-2 -6 -8 -10 -13 -10 -5 0 -11 4 -13
10 -2 6 4 11 13 11 9 0 15 -5 13 -11z m62 -4 c0 -8 -4 -15 -9 -15 -13 0 -22
16 -14 24 11 11 23 6 23 -9z"/>
<path d="M1448 222 c-28 -6 -17 -47 13 -49 17 -1 19 0 5 4 -15 4 -16 7 -5 14
12 7 12 9 -1 9 -13 0 -13 1 0 10 18 11 11 18 -12 12z"/>
<path d="M1491 216 c-9 -11 -8 -15 6 -20 15 -6 15 -8 3 -16 -13 -8 -12 -10 2
-10 23 0 33 19 13 26 -12 5 -13 9 -5 14 8 5 8 10 2 14 -5 3 -15 0 -21 -8z"/>
<path d="M1697 213 c-11 -11 -17 -13 -17 -5 0 7 -11 12 -25 12 -19 0 -25 -5
-26 -22 l0 -23 -11 23 c-12 25 -34 31 -24 6 3 -8 2 -13 -3 -10 -5 3 -11 0 -14
-7 -6 -16 80 -22 99 -6 8 7 14 7 19 -1 9 -15 45 -12 51 5 6 15 -11 45 -25 45
-4 0 -14 -8 -24 -17z m-27 -18 c0 -8 -4 -15 -9 -15 -13 0 -22 16 -14 24 11 11
23 6 23 -9z m65 6 c7 -12 -12 -24 -25 -16 -11 7 -4 25 10 25 5 0 11 -4 15 -9z"/>
<path d="M987 200 c5 -19 21 -36 27 -29 2 2 7 15 10 29 7 24 6 24 -8 6 -14
-17 -16 -18 -16 -3 0 9 -4 17 -9 17 -5 0 -7 -9 -4 -20z"/>
<path d="M1040 195 c0 -19 5 -25 23 -25 16 0 18 3 9 9 -8 4 -14 12 -14 16 0 4
6 12 14 16 9 6 7 9 -9 9 -18 0 -23 -6 -23 -25z"/>
<path d="M1090 195 c0 -19 5 -25 18 -23 18 3 33 27 25 41 -2 4 -13 7 -24 7
-14 0 -19 -7 -19 -25z"/>
<path d="M1537 208 c6 -7 12 -20 15 -28 3 -9 7 -4 10 13 4 22 2 27 -15 27 -14
0 -17 -3 -10 -12z"/>
</g>
</svg>
